# xmcd
#
# Track frame offsets: 
#        182
#        12982
#        25395
#        38707
#        52245
#        63330
#        73952
#        85867
#        100807
#        112830
#        120757
#        131587
#        141877
#        154000
#        165610
#        174060
#        187390
#        199482
#        210937
#        222450
#        234245
#        247250
#        258930
#
# Disc length: 3598 seconds
#
# Revision: 0
# Processed by: cddbd v1.5.1PL0 Copyright (c) Steve Scherf et al.
# Submitted via: ExactAudioCopy v0.95a3
#
DISCID=490e0c17
DTITLE=Various Artist - Old Town Blues, Vol. 2: the Uptown Sides
DYEAR=1994
DGENRE=Blues
TTITLE0=The Wailers - Guitar Shuffle
TTITLE1=Hal Paige and the Wailers - Rock the Joint This Morning
TTITLE2=Hal Paige and the Wailers - My Angel Child
TTITLE3=Hal Paige and the Wailers - Guitar Blues
TTITLE4=Ursula Reed - Ursula's Blues
TTITLE5=Ursula Reed - Fool About the Man I Love
TTITLE6=Ursula Reed - Have a Good Time Baby
TTITLE7=Ursula Reed - You're Laughing 'cause I'm Crying
TTITLE8=Tarheel Slim and Little Ann - You Got My Nose Wide Open
TTITLE9=Lester Young - Down to the River
TTITLE10=Larry Dale - Big Muddy (alternative version)
TTITLE11=Larry Dale - What Your Love Means to Me (alternative version)
TTITLE12=Larry Dale - Let Your Love Run to Me
TTITLE13=Larry Dale - Le the Door Bell Ring
TTITLE14=Adams Bros - Burning in Pain
TTITLE15=Sam Baker - Storming and Raining Blues
TTITLE16=Buddy and Ella Johnson - I Got to Talk to Somebody
TTITLE17=Buddy and Ella Johnson - Keep on Lovin' You
TTITLE18=Buddy and Ella Johnson - Like You Do
TTITLE19=Buddy and Ella Johnson - Don't Be Messin' With My Man
TTITLE20=Wild Bill Moore - Slow Drag (Day Train)
TTITLE21=Larry Dale - Big Muddy
TTITLE22=Larry Dale - What Your Love Means to Me
EXTD=
EXTT0=
EXTT1=
EXTT2=
EXTT3=
EXTT4=
EXTT5=
EXTT6=
EXTT7=
EXTT8=
EXTT9=
EXTT10=
EXTT11=
EXTT12=
EXTT13=
EXTT14=
EXTT15=
EXTT16=
EXTT17=
EXTT18=
EXTT19=
EXTT20=
EXTT21=
EXTT22=
PLAYORDER=
